Fly_normalized_Motion_pl11
version=1
nRows=18
nColumns=43
inDegrees=yes
endheader
time		pelvis_tilt		pelvis_list		pelvis_rotation		pelvis_tx		pelvis_ty		pelvis_tz		hip_flexion_r		hip_adduction_r		hip_rotation_r		knee_angle_r		ankle_angle_r		subtalar_angle_r		mtp_angle_r		hip_flexion_l		hip_adduction_l		hip_rotation_l		knee_angle_l		ankle_angle_l		subtalar_angle_l		mtp_angle_l		lumbar_extension		lumbar_bending		lumbar_rotation		neck_flexion		neck_lateral_bending		neck_rotation		arm_flex_r		arm_add_r		arm_rot_r		elbow_flex_r		pro_sup_r		wrist_flex_r		wrist_dev_r		hand_finger_flex_r		arm_flex_l		arm_add_l		arm_rot_l		elbow_flex_l		pro_sup_l		wrist_flex_l		wrist_dev_l		hand_finger_flex_l		
0.793333		-1.849878		-4.632067		92.393593		0.005034		1.828311		1.171063		61.148314		-4.846555		-0.336415		-97.354374		-9.604913		0.668092		10.063659		53.807996		0.756115		-6.819532		-87.872512		-6.998183		-18.402508		11.462203		-52.950273		0.199307		4.509251		9.260582		-2.543338		-6.228254		94.428211		-29.027982		35.712035		68.387978		78.269950		-39.159017		-4.193024		29.662555		90.775854		-14.493650		24.284954		69.800486		110.760164		-18.087046		14.778661		84.505599		
0.797677		-1.861925		-4.538218		92.498202		0.004544		1.823267		1.162394		61.341465		-4.945615		-0.473908		-95.846619		-10.156771		0.582050		10.200563		53.805531		0.860256		-7.034486		-86.175750		-7.450890		-18.159021		12.336720		-52.930257		0.354012		4.402024		8.895283		-2.698258		-6.242468		91.493280		-29.755993		34.731609		69.052242		78.256782		-39.693679		-3.965870		29.860983		88.243243		-15.639271		24.366537		70.728115		110.557658		-17.998751		14.983183		84.693718		
0.802020		-1.845564		-4.300531		92.549769		0.003949		1.818009		1.153520		61.294626		-4.988512		-0.588795		-94.333387		-10.495714		0.618259		10.223821		53.640024		0.879305		-7.285569		-84.598160		-7.914529		-17.988020		12.757706		-53.004705		0.512743		4.415658		8.205403		-2.747035		-6.201362		88.873436		-30.905210		34.559956		69.664263		78.324396		-39.826364		-3.846175		30.070068		85.739130		-16.904119		24.721024		71.593906		110.445722		-17.800688		15.104526		84.936442		
0.806364		-1.863202		-4.285575		92.611347		0.003633		1.812398		1.144662		61.421023		-5.040747		-0.682683		-92.733063		-10.937038		0.623650		10.352706		53.645978		0.908503		-7.549471		-82.887499		-8.665855		-18.147911		13.995794		-52.891284		0.619005		4.308663		7.906931		-2.874009		-6.149837		85.664750		-31.507062		33.108401		70.374130		78.505543		-40.100206		-3.455804		30.521708		83.065951		-18.130232		24.637036		72.551922		110.304188		-17.581884		15.419102		85.337418		
0.810707		-1.840351		-4.049062		92.634389		0.003120		1.806732		1.135593		61.237761		-5.060791		-0.789390		-91.142178		-11.241950		0.716428		10.400778		53.403167		0.861174		-7.822180		-81.313615		-9.315582		-18.269188		14.656507		-52.945658		0.760140		4.311194		7.214115		-2.909810		-6.096485		82.885144		-32.606469		32.763201		70.953977		78.668178		-40.083537		-3.276483		30.842354		80.449488		-19.454897		24.830672		73.397763		110.232385		-17.350705		15.576313		85.646383		
0.815051		-1.761578		-3.809253		92.662949		0.002879		1.801280		1.126387		60.914270		-5.003407		-0.935991		-89.408384		-11.602149		0.854833		10.446220		53.057878		0.730483		-8.080879		-79.601753		-10.175288		-18.815510		15.269422		-53.072634		0.932543		4.285958		6.907685		-3.113398		-6.020810		79.719700		-33.283903		31.565126		71.587990		78.640359		-40.194986		-3.118346		31.085817		77.622110		-20.704134		24.477477		74.336555		110.110825		-17.186017		15.701797		85.995331		
0.819394		-1.711889		-3.512341		92.678149		0.002395		1.795448		1.116967		60.512553		-5.000853		-1.050918		-87.750802		-11.942792		0.974804		10.490419		52.617266		0.614786		-8.369912		-77.970507		-11.026365		-19.398104		15.815652		-53.188069		1.092025		4.263477		6.282229		-3.190790		-5.936316		76.691947		-34.236436		30.891405		72.143874		78.773357		-40.043785		-2.933912		31.369102		74.798346		-22.048051		24.364570		75.215108		110.082352		-16.938896		15.824715		86.385303		
0.823737		-1.614754		-3.152078		92.699369		0.002001		1.789691		1.107378		59.942493		-4.943006		-1.188080		-86.028719		-12.323744		1.129017		10.479460		52.021060		0.423083		-8.649749		-76.276240		-11.818323		-20.044871		16.030589		-53.398672		1.298468		4.239835		5.836783		-3.371843		-5.850039		73.499480		-34.960577		29.880168		72.674115		78.825131		-40.063549		-2.827959		31.559685		71.815998		-23.372272		23.947454		76.129952		109.968258		-16.790753		15.919525		86.819270		
0.828081		-1.550430		-2.757699		92.728145		0.001624		1.783939		1.097734		59.267697		-4.925353		-1.316408		-84.268081		-12.686776		1.277959		10.488307		51.290454		0.268557		-8.959606		-74.479761		-12.760413		-21.090393		16.289835		-53.665601		1.475594		4.158651		5.514820		-3.534064		-5.730004		70.180697		-35.493109		28.484492		73.095683		79.192933		-39.800502		-2.592062		31.920783		68.774365		-24.655190		23.359148		77.001199		109.963468		-16.629611		16.091442		87.501968		
0.832424		-1.476903		-2.371160		92.764968		0.001138		1.777730		1.088014		58.579793		-4.933408		-1.454836		-82.560839		-13.036418		1.449722		10.462799		50.554957		0.110644		-9.239517		-72.760178		-13.518544		-21.820784		16.386257		-53.875993		1.672350		4.074369		5.046781		-3.656114		-5.643610		66.905619		-36.122718		27.344668		73.452273		79.682211		-39.564272		-2.424673		32.251800		65.692932		-26.003768		22.890833		77.797855		109.938265		-16.590745		16.250200		88.158397		
0.836768		-1.383743		-2.021275		92.803195		0.000708		1.770984		1.078240		57.919439		-4.960574		-1.648103		-80.917032		-13.382663		1.612426		10.406585		49.866813		-0.052454		-9.448174		-71.137986		-14.144936		-22.276019		16.329928		-53.994847		1.873842		4.010220		4.415766		-3.740729		-5.575552		63.662828		-36.863724		26.478777		73.756973		80.056516		-39.425898		-2.385953		32.499895		62.556037		-27.413002		22.514575		78.536805		109.864268		-16.638848		16.353909		88.636940		
0.841111		-1.264369		-1.697651		92.888475		0.000418		1.764209		1.068464		57.172847		-4.970903		-1.874623		-79.154507		-13.738279		1.775242		10.340417		49.154572		-0.185529		-9.565337		-69.442401		-14.808665		-22.873691		16.166233		-54.120677		2.110972		3.887399		4.024906		-3.876482		-5.487937		60.201704		-37.264652		25.079141		73.964808		80.509674		-39.259899		-2.505155		32.739318		59.226146		-28.665109		21.672726		79.216497		109.786619		-16.852150		16.388155		89.026573		
0.845455		-1.177417		-1.381812		92.966994		0.000068		1.756943		1.058578		56.447601		-5.031282		-2.112871		-77.490990		-14.093772		1.893878		10.274633		48.465751		-0.262644		-9.644666		-67.837958		-15.470021		-23.376975		15.958979		-54.180801		2.315144		3.750708		3.463041		-3.952706		-5.412748		56.720521		-37.730236		23.774870		74.102795		81.109344		-38.924582		-2.671536		32.971798		55.830858		-29.912350		20.855929		79.837186		109.802663		-17.005873		16.335864		89.315315		
0.849798		-1.117125		-1.043294		93.003946		-0.000317		1.749096		1.048533		55.743636		-5.098321		-2.333480		-75.975571		-14.475777		1.964912		10.201896		47.792905		-0.349613		-9.741834		-66.388615		-16.041465		-23.633674		15.777382		-54.186844		2.472367		3.630631		2.679329		-3.974179		-5.366186		53.262277		-38.317289		22.736334		74.203000		81.569831		-38.710428		-2.860857		33.115742		52.393366		-31.187763		20.129151		80.400983		109.799645		-17.016269		16.249102		89.501768		
0.854141		-1.104913		-0.660440		93.051651		-0.000576		1.741364		1.038407		54.887971		-5.188616		-2.562681		-74.359720		-14.842446		1.889401		10.131602		47.006383		-0.393826		-9.866816		-64.863450		-16.683101		-24.129149		15.460739		-54.283905		2.566881		3.440917		2.155793		-3.967357		-5.264501		49.573912		-38.524924		20.926765		74.112208		82.858841		-37.739896		-3.189713		33.403780		48.765632		-32.238575		18.820052		80.915701		110.144906		-16.694396		15.844624		89.591611		
0.858485		-1.062515		-0.292689		93.026730		-0.000680		1.733322		1.028179		54.013299		-5.173271		-2.745158		-72.714554		-15.302651		1.786003		10.023475		46.241551		-0.555260		-10.043667		-63.437252		-17.039860		-24.167561		15.311480		-54.329926		2.612479		3.308965		1.595467		-3.943084		-5.226521		45.925931		-38.632457		19.331542		73.980100		83.270817		-37.778243		-3.468557		33.432062		45.038006		-33.144300		17.311731		81.296947		109.994173		-16.537774		15.666659		89.669323		
0.862828		-1.023688		0.164798		92.956457		-0.000836		1.725069		1.017806		53.050988		-5.160059		-2.963393		-71.159407		-15.812160		1.552190		9.888261		45.380169		-0.766935		-10.290004		-62.092714		-17.405271		-24.184835		15.159871		-54.461774		2.619906		3.177468		1.021410		-3.853809		-5.114481		42.306333		-38.732558		17.724317		73.760781		83.996016		-37.412034		-3.817333		33.658180		41.208186		-34.085364		15.713031		81.756097		109.996256		-16.135060		15.301238		89.697862		
0.867172		-0.988527		0.644863		92.872203		-0.000975		1.716556		1.007387		52.040818		-5.154392		-3.197357		-69.611126		-16.386027		1.306363		9.719260		44.495621		-0.992497		-10.541886		-60.822095		-17.734400		-24.125091		15.031199		-54.588407		2.603477		3.013946		0.396791		-3.721705		-4.964015		38.765691		-38.714271		16.105840		73.395376		84.934615		-36.815493		-3.975621		33.936374		37.308276		-34.986663		14.010582		82.151255		110.060342		-15.454719		14.778763		89.580032		
